<svg xmlns="http://www.w3.org/2000/svg" xmlns:xlink="http://www.w3.org/1999/xlink" width="40" height="40" viewBox="0 0 40 40">
  <defs>
    <clipPath id="clip-path">
      <rect id="Rectangle_1243" data-name="Rectangle 1243" width="40" height="40" transform="translate(244.374 1113.389)" fill="#222" stroke="#222" stroke-width="1"/>
    </clipPath>
  </defs>
  <g id="Mask_Group_106" data-name="Mask Group 106" transform="translate(-244.374 -1113.389)" clip-path="url(#clip-path)">
    <g id="gaming-chair" transform="translate(250.146 1115.085)">
      <path id="Path_16868" data-name="Path 16868" d="M25.647,20.582V19.519a3.262,3.262,0,0,0-2.164-2.973V11.712a3.834,3.834,0,0,0,.65-2.122,4.553,4.553,0,0,0-4.81-4.229h-.357V3.293A3.545,3.545,0,0,0,15.222,0H11.76A3.544,3.544,0,0,0,8.016,3.293V5.361H7.659A4.553,4.553,0,0,0,2.85,9.59a3.836,3.836,0,0,0,.65,2.122v4.722a3.342,3.342,0,0,0-2.477,3.084v1.063A1.962,1.962,0,0,0,0,22.257v3.474a2.166,2.166,0,0,0,2.288,2.012h9.091v2.264L7,28.842a2.183,2.183,0,0,0-1.49.13,1.778,1.778,0,0,0-.948,1.018,1.7,1.7,0,0,0,1.306,2.143l.714.19-.714.19a1.7,1.7,0,0,0-1.306,2.144,1.93,1.93,0,0,0,1.871,1.222A2.2,2.2,0,0,0,7,35.805l4.38-1.165V35.7a1.851,1.851,0,0,0,1.956,1.719A1.851,1.851,0,0,0,15.29,35.7V34.64l4.38,1.165a2.2,2.2,0,0,0,.567.074,1.93,1.93,0,0,0,1.871-1.222A1.7,1.7,0,0,0,20.8,32.514l-.714-.19.714-.19a1.7,1.7,0,0,0,1.306-2.144,1.778,1.778,0,0,0-.948-1.018,2.18,2.18,0,0,0-1.489-.13l-2.366.63a.541.541,0,0,0-.417.684.643.643,0,0,0,.778.366l2.367-.63a.789.789,0,0,1,.538.047.644.644,0,0,1,.343.368.614.614,0,0,1-.472.775l-2.508.667-2.643-.7v-3.3h9.091a2.166,2.166,0,0,0,2.288-2.012V22.257a1.962,1.962,0,0,0-1.023-1.675ZM24.4,19.519v.726h-.916V17.828a2.079,2.079,0,0,1,.916,1.691ZM11.76,1.1h3.461a2.363,2.363,0,0,1,2.5,2.2V10.6a.589.589,0,0,1-.622.547H9.887a.589.589,0,0,1-.622-.547V5.911h0V3.293a2.363,2.363,0,0,1,2.5-2.2ZM2.271,19.519A2.151,2.151,0,0,1,3.5,17.64v2.605H2.271ZM6.228,31.083a.614.614,0,0,1-.472-.775A.641.641,0,0,1,6.1,29.94a.787.787,0,0,1,.538-.047L11.179,31.1l-2.443.65Zm.409,3.671a.8.8,0,0,1-.2.027.707.707,0,0,1-.676-.442.613.613,0,0,1,.472-.775l2.7-.719h0l2.447-.651v1.3Zm13.8-1.191a.614.614,0,0,1,.472.775.707.707,0,0,1-.676.442.793.793,0,0,1-.205-.027L15.29,33.494v-1.3Zm-6.4-2.106V35.7a.713.713,0,0,1-1.415,0V27.743h1.415Zm11.379-5.727a.984.984,0,0,1-1.04.915H2.288a.984.984,0,0,1-1.04-.915V22.257a.985.985,0,0,1,1.04-.915H5.552a.553.553,0,1,0,0-1.1h-.8V11.559a.5.5,0,0,0-.1-.294A2.852,2.852,0,0,1,4.1,9.59,3.371,3.371,0,0,1,7.66,6.458h.357V10.6a1.77,1.77,0,0,0,1.871,1.645H17.1A1.77,1.77,0,0,0,18.966,10.6V6.458h.357A3.371,3.371,0,0,1,22.884,9.59a2.852,2.852,0,0,1-.552,1.675.5.5,0,0,0-.1.294v8.686H8.492a.553.553,0,1,0,0,1.1H24.381a.985.985,0,0,1,1.04.915Zm0,0" transform="translate(0 0)" fill="#222" stroke="#222" stroke-width="0.45"/>
      <path id="Path_16869" data-name="Path 16869" d="M9.2,14.948h4.994a.568.568,0,1,0,0-1.135H9.2a.568.568,0,1,0,0,1.135Zm0,0" transform="translate(1.794 0.531)" fill="#222" stroke="#222" stroke-width="0.37"/>
      <path id="Path_16870" data-name="Path 16870" d="M9.2,17.423h4.994a.568.568,0,1,0,0-1.135H9.2a.568.568,0,1,0,0,1.135Zm0,0" transform="translate(1.794 0.626)" fill="#222" stroke="#222" stroke-width="0.37"/>
    </g>
  </g>
</svg>
