<svg xmlns="http://www.w3.org/2000/svg" width="35.007" height="38.6" viewBox="0 0 35.007 38.6">
  <g id="baby-bed" transform="translate(0.004 0.051)">
    <path id="Path_16790" data-name="Path 16790" d="M37.215,38.407a.757.757,0,0,1-.147-.015.746.746,0,0,1-.14-.043.79.79,0,0,1-.13-.069.8.8,0,0,1-.114-.093.744.744,0,0,1-.093-.115.774.774,0,0,1-.069-.13.749.749,0,0,1,0-.575.8.8,0,0,1,.069-.13.737.737,0,0,1,.093-.114.757.757,0,0,1,.114-.094.8.8,0,0,1,.13-.069.753.753,0,0,1,.575,0,.8.8,0,0,1,.13.069.742.742,0,0,1,.114.094.735.735,0,0,1,.093.114.777.777,0,0,1,.069.13.752.752,0,0,1-.069.705.742.742,0,0,1-.093.115.772.772,0,0,1-.114.093.8.8,0,0,1-.13.069.767.767,0,0,1-.287.058Zm0,0" transform="translate(-6.586 -6.674)" fill="#222" stroke="#666" stroke-width="0.1"/>
    <path id="Path_16791" data-name="Path 16791" d="M34.2,12.917H31.553a.752.752,0,0,0-.752.752v3.249H4.2V13.669a.752.752,0,0,0-.752-.752H.8a.752.752,0,0,0-.752.752V40.084a.752.752,0,0,0,.752.752H4.206a.752.752,0,0,0,.752-.752V36.815H30.041v3.269a.752.752,0,0,0,.752.752H34.2a.752.752,0,0,0,.752-.752V13.669a.752.752,0,0,0-.752-.752ZM1.55,35.311V34.069H27.816a.752.752,0,1,0,0-1.5H1.55V30.132h31.9v5.18ZM4.2,26.264a1.257,1.257,0,0,1,1.256-1.256h.2v3.619H4.2ZM12.2,23.5h-2.5V18.422h2.5Zm-2.5,1.5h2.5v3.619h-2.5Zm9.041-1.5h-2.5V18.422h2.5Zm-2.5,1.5h2.5v3.619h-2.5Zm9.041-1.5H22.8V18.422h2.5Zm-2.5,1.5h2.5v3.619H22.8Zm6.545,0h.2A1.257,1.257,0,0,1,30.8,26.264v2.363h-1.46Zm2.964-10.587h1.144V28.628H32.305Zm-1.5,9.386a2.742,2.742,0,0,0-1.256-.3h-.2V18.422H30.8Zm-2.964-5.386V28.628H26.8V18.422Zm-6.545,0V28.628H20.251V18.422Zm-6.545,0V28.628H13.706V18.422Zm-6.545,0V28.628H7.162V18.422Zm-2.545,0V23.5h-.2a2.742,2.742,0,0,0-1.256.3V18.422Zm-4.108-4H2.694V28.628H1.55Zm1.9,24.911H1.55V36.815h1.9Zm29.995,0h-1.9V36.815h1.9Zm0,0" transform="translate(0 -2.336)" fill="#222" stroke="#666" stroke-width="0.1"/>
    <path id="Path_16792" data-name="Path 16792" d="M17.331,11.65a5.826,5.826,0,0,1-5.563-7.524A5.846,5.846,0,0,1,17.041,0a.752.752,0,0,1,.637,1.207A4.328,4.328,0,0,0,21.343,8.15a.752.752,0,0,1,.637,1.207,5.856,5.856,0,0,1-4.649,2.292Zm-1.694-9.8A4.324,4.324,0,1,0,19.66,9.473q-.119-.031-.239-.067a5.835,5.835,0,0,1-3.879-7.274q.044-.143.094-.283Zm.625.5h0Zm0,0" transform="translate(-2.074 0)" fill="#222" stroke="#666" stroke-width="0.1"/>
    <path id="Path_16793" data-name="Path 16793" d="M27.639,7.535a.753.753,0,0,1-.3-.062L25.786,6.8l-1.553.674a.752.752,0,0,1-1.048-.761l.16-1.685-1.12-1.269a.752.752,0,0,1,.4-1.232l1.653-.368L25.139.7a.752.752,0,0,1,1.3,0l.861,1.458,1.653.368a.752.752,0,0,1,.4,1.232l-1.121,1.27.161,1.685a.752.752,0,0,1-.749.823ZM24.2,3.717l.493.559a.751.751,0,0,1,.185.569l-.071.742.684-.3a.751.751,0,0,1,.6,0l.684.3L26.7,4.845a.751.751,0,0,1,.185-.569l.493-.559-.728-.162a.752.752,0,0,1-.484-.352l-.379-.642-.379.642a.752.752,0,0,1-.484.352Zm0,0" transform="translate(-3.977 -0.06)" fill="#222" stroke="#666" stroke-width="0.1"/>
  </g>
</svg>
