<svg xmlns="http://www.w3.org/2000/svg" xmlns:xlink="http://www.w3.org/1999/xlink" width="39" height="39" viewBox="0 0 39 39">
  <defs>
    <clipPath id="clip-path">
      <rect id="Rectangle_1182" data-name="Rectangle 1182" width="39" height="39" transform="translate(110 1107)" fill="#fff"/>
    </clipPath>
  </defs>
  <g id="Mask_Group_88" data-name="Mask Group 88" transform="translate(-110 -1107)" clip-path="url(#clip-path)">
    <g id="bed" transform="translate(110 1109.6)">
      <g id="Group_11247" data-name="Group 11247" transform="translate(0 0)">
        <g id="Group_11246" data-name="Group 11246">
          <path id="Path_16794" data-name="Path 16794" d="M38.35,22.633H37.7v-1.95a3.25,3.25,0,0,0-1.95-2.974V7.683a.65.65,0,0,0-.39-.6,2.573,2.573,0,0,0,.39-1.355,2.6,2.6,0,0,0-5.2,0,2.574,2.574,0,0,0,.361,1.3H8.089a2.574,2.574,0,0,0,.361-1.3,2.6,2.6,0,1,0-5.2,0,2.573,2.573,0,0,0,.39,1.355.65.65,0,0,0-.39.6V17.709A3.25,3.25,0,0,0,1.3,20.683v1.95H.65a.65.65,0,0,0-.65.65v9.1a.65.65,0,0,0,.65.65H1.3v3.25a.65.65,0,0,0,.65.65h2.6a.65.65,0,0,0,.65-.65v-3.25H33.8v3.25a.65.65,0,0,0,.65.65h2.6a.65.65,0,0,0,.65-.65v-3.25h.65a.65.65,0,0,0,.65-.65v-9.1A.65.65,0,0,0,38.35,22.633Zm-5.2-18.2a1.3,1.3,0,1,1-1.3,1.3A1.3,1.3,0,0,1,33.15,4.433Zm-27.3,0a1.3,1.3,0,1,1-1.3,1.3A1.3,1.3,0,0,1,5.85,4.433Zm-1.3,3.9h29.9v9.1H31.833a3.216,3.216,0,0,0,.667-1.95v-1.3a3.254,3.254,0,0,0-3.25-3.25h-5.2a3.254,3.254,0,0,0-3.25,3.25v1.3a3.216,3.216,0,0,0,.667,1.95H17.533a3.216,3.216,0,0,0,.667-1.95v-1.3a3.254,3.254,0,0,0-3.25-3.25H9.75a3.254,3.254,0,0,0-3.25,3.25v1.3a3.216,3.216,0,0,0,.667,1.95H4.55Zm26.65,5.85v1.3a1.95,1.95,0,0,1-1.95,1.95h-5.2a1.95,1.95,0,0,1-1.95-1.95v-1.3a1.95,1.95,0,0,1,1.95-1.95h5.2A1.95,1.95,0,0,1,31.2,14.183Zm-14.3,0v1.3a1.95,1.95,0,0,1-1.95,1.95H9.75a1.95,1.95,0,0,1-1.95-1.95v-1.3a1.95,1.95,0,0,1,1.95-1.95h5.2A1.95,1.95,0,0,1,16.9,14.183Zm-14.3,6.5a1.95,1.95,0,0,1,1.95-1.95h29.9a1.95,1.95,0,0,1,1.95,1.95v1.95H2.6Zm1.3,14.95H2.6v-2.6H3.9Zm32.5,0H35.1v-2.6h1.3Zm1.3-3.9H1.3v-7.8H37.7Z" transform="translate(0 -3.133)" fill="#fff" stroke="#fff" stroke-width="0.3"/>
        </g>
      </g>
      <g id="Group_11249" data-name="Group 11249" transform="translate(2.6 26)">
        <g id="Group_11248" data-name="Group 11248">
          <path id="Path_16795" data-name="Path 16795" d="M6.383,34.467h-2.6a.65.65,0,1,0,0,1.3h2.6a.65.65,0,1,0,0-1.3Z" transform="translate(-3.133 -34.467)" fill="#fff" stroke="#fff" stroke-width="0.3"/>
        </g>
      </g>
      <g id="Group_11251" data-name="Group 11251" transform="translate(7.8 26)">
        <g id="Group_11250" data-name="Group 11250">
          <path id="Path_16796" data-name="Path 16796" d="M37.35,34.467H10.05a.65.65,0,1,0,0,1.3h27.3a.65.65,0,0,0,0-1.3Z" transform="translate(-9.4 -34.467)" fill="#fff" stroke="#fff" stroke-width="0.3"/>
        </g>
      </g>
    </g>
  </g>
</svg>
