<svg xmlns="http://www.w3.org/2000/svg" xmlns:xlink="http://www.w3.org/1999/xlink" width="43" height="42" viewBox="0 0 43 42">
  <defs>
    <clipPath id="clip-path">
      <rect id="Rectangle_1183" data-name="Rectangle 1183" width="43" height="42" transform="translate(179.957 1110)" fill="#222" stroke="#707070" stroke-width="1"/>
    </clipPath>
  </defs>
  <g id="Mask_Group_89" data-name="Mask Group 89" transform="translate(-179.957 -1110)" clip-path="url(#clip-path)">
    <g id="furniture" transform="translate(180 1115.75)">
      <path id="Path_16797" data-name="Path 16797" d="M28.811,9.638a4.185,4.185,0,0,0-2.929-1.208V4.361A4.561,4.561,0,0,0,24.331.947,3.505,3.505,0,0,0,21.5.082a42.515,42.515,0,0,1-12.928,0A3.5,3.5,0,0,0,5.749.947,4.562,4.562,0,0,0,4.2,4.361V8.429A4.176,4.176,0,0,0,2.49,8.8a.629.629,0,1,0,.517,1.146,2.965,2.965,0,0,1,1.282-.261,2.9,2.9,0,0,1,.416.039l.03.005a3.04,3.04,0,0,1,2.463,3v7.7A1.868,1.868,0,0,0,9.064,22.3H21.016a1.868,1.868,0,0,0,1.866-1.866v-7.7a3.022,3.022,0,0,1,2.909-3.041A2.97,2.97,0,0,1,27.1,15.35a.628.628,0,0,0-.363.57v8.36a1.881,1.881,0,0,1-1.879,1.879H5.217a1.881,1.881,0,0,1-1.879-1.879V15.92a.629.629,0,0,0-.363-.57,2.982,2.982,0,0,1-1.718-2.693,2.937,2.937,0,0,1,.288-1.278.629.629,0,1,0-1.134-.542A4.187,4.187,0,0,0,0,12.657,4.246,4.246,0,0,0,2.081,16.3v7.981a3.14,3.14,0,0,0,3.136,3.136h.59v1.915a1.217,1.217,0,0,0,1.215,1.215H8.037a1.217,1.217,0,0,0,1.215-1.215V27.416H20.827v1.915a1.217,1.217,0,0,0,1.215,1.215h1.016a1.217,1.217,0,0,0,1.215-1.215V27.416h.589A3.14,3.14,0,0,0,28,24.279V16.3a4.247,4.247,0,0,0,2.081-3.641,4.2,4.2,0,0,0-1.269-3.019Zm-7.187,10.8a.609.609,0,0,1-.608.608H9.064a.609.609,0,0,1-.609-.608V17.786H21.625Zm0-7.7v3.8H8.455v-3.8a4.319,4.319,0,0,0-3-4.112V4.361A3.334,3.334,0,0,1,6.571,1.9a2.252,2.252,0,0,1,1.821-.572,43.746,43.746,0,0,0,13.3,0,2.254,2.254,0,0,1,1.822.572,3.335,3.335,0,0,1,1.115,2.463V8.616a4.319,4.319,0,0,0-3,4.112ZM8,29.289H7.064V27.416H8Zm15.021,0h-.932V27.416h.932Zm0,0" transform="translate(0 -0.046)" fill="#222" stroke="#666" stroke-width="0.3"/>
      <path id="Path_16798" data-name="Path 16798" d="M12.611,7.141h-.22v-.22a.629.629,0,0,0-1.257,0v.22h-.22a.629.629,0,1,0,0,1.257h.22v.22a.629.629,0,1,0,1.257,0V8.4h.22a.629.629,0,0,0,0-1.257Zm0,0" transform="translate(-0.894 -0.589)" fill="#222" stroke="#fff" stroke-width="0.3"/>
      <path id="Path_16799" data-name="Path 16799" d="M21.749,7.141h-.22v-.22a.629.629,0,0,0-1.257,0v.22h-.22a.629.629,0,0,0,0,1.257h.22v.22a.629.629,0,1,0,1.257,0V8.4h.22a.629.629,0,0,0,0-1.257Zm0,0" transform="translate(-1.689 -0.589)" fill="#222" stroke="#fff" stroke-width="0.3"/>
      <path id="Path_16800" data-name="Path 16800" d="M44.456,14.2h-4.07V11.366h2.22a1.141,1.141,0,0,0,1.072-1.53L42.3,6.03a1.144,1.144,0,0,0-1.073-.751H38.29a1.144,1.144,0,0,0-1.073.752L35.836,9.836a1.141,1.141,0,0,0,1.072,1.53h2.22V14.2H34.446a1.338,1.338,0,0,0-1.336,1.336v.755a1.338,1.338,0,0,0,1.336,1.336h.019v1.2a.629.629,0,1,0,1.257,0v-1.2H43.18V21.8H35.722v-.457a.629.629,0,0,0-1.257,0v6.119a1.028,1.028,0,0,0,.641.951v1.541A1.045,1.045,0,0,0,36.15,31h.929a1.045,1.045,0,0,0,1.044-1.044V28.49h2.431v1.466A1.045,1.045,0,0,0,41.6,31h.929a1.045,1.045,0,0,0,1.044-1.044V28.478a1.027,1.027,0,0,0,.866-1.014V17.628h.019a1.338,1.338,0,0,0,1.336-1.336v-.755A1.338,1.338,0,0,0,44.456,14.2ZM38.372,6.536h2.772l1.3,3.573H37.075ZM43.18,23.059v4.174H35.722V23.059Zm-6.314,6.684h-.5V28.49h.5Zm5.448,0h-.5V28.49h.5Zm2.221-13.452a.08.08,0,0,1-.079.079H34.446a.08.08,0,0,1-.079-.079v-.755a.079.079,0,0,1,.079-.079H44.456a.079.079,0,0,1,.079.079Zm0,0" transform="translate(-2.879 -0.501)" fill="#222" stroke="#666" stroke-width="0.3"/>
      <path id="Path_16801" data-name="Path 16801" d="M40.4,20.53a.629.629,0,0,0,0-1.257h-.892a.629.629,0,1,0,0,1.257Zm0,0" transform="translate(-3.381 -1.718)" fill="#222" stroke="#fff" stroke-width="0.3"/>
      <path id="Path_16802" data-name="Path 16802" d="M39.506,26.5H40.4a.629.629,0,1,0,0-1.257h-.892a.629.629,0,0,0,0,1.257Zm0,0" transform="translate(-3.381 -2.236)" fill="#222" stroke="#fff" stroke-width="0.3"/>
    </g>
  </g>
</svg>
