<svg xmlns="http://www.w3.org/2000/svg" xmlns:xlink="http://www.w3.org/1999/xlink" width="34" height="35" viewBox="0 0 34 35">
  <defs>
    <clipPath id="clip-path">
      <rect id="Rectangle_1245" data-name="Rectangle 1245" width="34" height="35" transform="translate(297.027 1115)" fill="#222" stroke="#fff" stroke-width="1"/>
    </clipPath>
  </defs>
  <g id="Mask_Group_108" data-name="Mask Group 108" transform="translate(-297.027 -1115)" clip-path="url(#clip-path)">
    <g id="hot-sale_1_" data-name="hot-sale (1)" transform="translate(300.012 1115)">
      <path id="Path_16878" data-name="Path 16878" d="M27.948,12.417A38.672,38.672,0,0,1,22.26,4.411a18.432,18.432,0,0,1-1.379-3.244L20.572,0l-1.1.491a11.01,11.01,0,0,0-4.879,4.857,11.106,11.106,0,0,0-1.02,4.917,1.583,1.583,0,0,1-2.7,1.127L8.817,9.34l-.706.974c-.073.1-1.8,2.481-2.113,2.956a14.015,14.015,0,1,0,25.716,7.716A13.321,13.321,0,0,0,27.948,12.417ZM17.7,32.947A11.964,11.964,0,0,1,7.711,14.4c.16-.242.8-1.136,1.357-1.907l.35.35a3.636,3.636,0,0,0,6.206-2.589,9.066,9.066,0,0,1,.8-3.988,9.057,9.057,0,0,1,2.9-3.314,36.641,36.641,0,0,0,7.1,10.842c.973,1.074,3.235,3.926,3.235,7.191A11.976,11.976,0,0,1,17.7,32.947Z" transform="translate(-3.684)" fill="#222" stroke="#fff" stroke-width="0.3"/>
      <path id="Path_16879" data-name="Path 16879" d="M20.331,18.408,13.9,27.832h2.275l6.436-9.424Z" transform="translate(-4.236 -0.995)" fill="#222" stroke="#fff" stroke-width="0.3"/>
      <path id="Path_16880" data-name="Path 16880" d="M22.008,22.963a2.415,2.415,0,0,0-2.5,2.625,2.507,2.507,0,1,0,5.008,0A2.415,2.415,0,0,0,22.008,22.963Zm0,3.8c-.3,0-.592-.269-.592-1.171s.3-1.171.592-1.171.592.269.592,1.171S22.3,26.759,22.008,26.759Z" transform="translate(-4.54 -1.241)" fill="#222" stroke="#fff" stroke-width="0.3"/>
      <path id="Path_16881" data-name="Path 16881" d="M17.21,20.891a2.415,2.415,0,0,0-2.5-2.625,2.415,2.415,0,0,0-2.5,2.625,2.408,2.408,0,0,0,2.5,2.625A2.408,2.408,0,0,0,17.21,20.891Zm-3.1,0c0-.9.3-1.171.592-1.171s.592.269.592,1.171-.3,1.171-.592,1.171S14.114,21.793,14.114,20.891Z" transform="translate(-4.145 -0.987)" fill="#222" stroke="#fff" stroke-width="0.3"/>
    </g>
  </g>
</svg>
