<svg xmlns="http://www.w3.org/2000/svg" width="21.433" height="23" viewBox="0 0 21.433 23">
  <g id="user" transform="translate(-0.783)">
    <g id="Group_11164" data-name="Group 11164">
      <g id="Group_11163" data-name="Group 11163">
        <path id="Path_16717" data-name="Path 16717" d="M11.5,12.955C4.589,12.955.783,16.224.783,22.161A.839.839,0,0,0,1.623,23H21.377a.839.839,0,0,0,.839-.839C22.217,16.225,18.411,12.955,11.5,12.955ZM2.493,21.321c.33-4.439,3.356-6.687,9.007-6.687s8.677,2.249,9.008,6.687Z" fill="#2362aa"/>
      </g>
    </g>
    <g id="Group_11166" data-name="Group 11166">
      <g id="Group_11165" data-name="Group 11165">
        <path id="Path_16718" data-name="Path 16718" d="M11.5,0A5.5,5.5,0,0,0,5.932,5.68,5.827,5.827,0,0,0,11.5,11.724,5.827,5.827,0,0,0,17.068,5.68,5.5,5.5,0,0,0,11.5,0Zm0,10.045A4.152,4.152,0,0,1,7.611,5.68a3.817,3.817,0,0,1,3.889-4,3.86,3.86,0,0,1,3.889,4A4.152,4.152,0,0,1,11.5,10.045Z" fill="#2362aa"/>
      </g>
    </g>
  </g>
</svg>
