<svg xmlns="http://www.w3.org/2000/svg" xmlns:xlink="http://www.w3.org/1999/xlink" width="28" height="26" viewBox="0 0 28 26">
  <defs>
    <clipPath id="clip-path">
      <rect id="Rectangle_1129" data-name="Rectangle 1129" width="28" height="26" transform="translate(0 -0.069)" fill="#2362aa" stroke="#707070" stroke-width="1"/>
    </clipPath>
  </defs>
  <g id="Mask_Group_67" data-name="Mask Group 67" transform="translate(0 0.069)" clip-path="url(#clip-path)">
    <g id="bag" transform="translate(4.761)">
      <g id="Group_11162" data-name="Group 11162">
        <path id="Path_16715" data-name="Path 16715" d="M22.143,22.116,20.815,7.13a.789.789,0,0,0-.778-.728H17.7V4.8a4.839,4.839,0,0,0-1.366-3.4A4.594,4.594,0,0,0,13.019,0,4.747,4.747,0,0,0,8.339,4.8V6.4H6a.787.787,0,0,0-.777.728L3.9,22.116a3.261,3.261,0,0,0,.8,2.449A3.089,3.089,0,0,0,7,25.606H19.036a3.089,3.089,0,0,0,2.3-1.042A3.267,3.267,0,0,0,22.143,22.116ZM9.9,4.8a3.164,3.164,0,0,1,3.119-3.2,3.067,3.067,0,0,1,2.21.933A3.221,3.221,0,0,1,16.138,4.8V6.4H9.9ZM20.187,23.486a1.531,1.531,0,0,1-1.153.52H7a1.523,1.523,0,0,1-1.151-.522,1.6,1.6,0,0,1-.4-1.224L6.713,8H8.339v2.4a.78.78,0,1,0,1.56,0V8h6.239v2.4a.78.78,0,1,0,1.56,0V8h1.627l1.263,14.259A1.606,1.606,0,0,1,20.187,23.486Z" transform="translate(-3.883)" fill="#2362aa"/>
      </g>
    </g>
  </g>
</svg>
