<svg xmlns="http://www.w3.org/2000/svg" width="30.012" height="30.019" viewBox="0 0 30.012 30.019">
  <g id="discount" transform="translate(0.271 0.286)">
    <g id="Group_11205" data-name="Group 11205" transform="translate(0 0)">
      <g id="Group_11204" data-name="Group 11204">
        <path id="Path_16763" data-name="Path 16763" d="M29.111,14.662a2.389,2.389,0,0,0-.36-2.967L27.6,10.563a1.247,1.247,0,0,1-.369-.978l.115-1.616a2.387,2.387,0,0,0-1.7-2.468l-1.521-.459a1.246,1.246,0,0,1-.785-.7L22.7,2.874a2.414,2.414,0,0,0-2.664-1.4l-1.544.3a1.246,1.246,0,0,1-1.025-.254L16.242.53a2.413,2.413,0,0,0-3.015,0L12,1.523a1.246,1.246,0,0,1-1.025.254l-1.544-.3a2.414,2.414,0,0,0-2.664,1.4L6.129,4.343a1.246,1.246,0,0,1-.785.7L3.823,5.5a2.387,2.387,0,0,0-1.7,2.468l.115,1.617a1.247,1.247,0,0,1-.369.978L.719,11.7a2.389,2.389,0,0,0-.36,2.967l.85,1.38a1.248,1.248,0,0,1,.125,1.037l-.5,1.546a2.388,2.388,0,0,0,1.059,2.8l1.377.817a1.247,1.247,0,0,1,.594.864l.271,1.59a2.386,2.386,0,0,0,2.247,1.994l1.577.078a1.246,1.246,0,0,1,.932.492l.962,1.265a2.412,2.412,0,0,0,1.919.945,2.379,2.379,0,0,0,1.007-.223l1.426-.666a1.246,1.246,0,0,1,1.057,0l1.425.666a2.413,2.413,0,0,0,2.926-.722l.961-1.265a1.246,1.246,0,0,1,.932-.492l1.577-.078a2.385,2.385,0,0,0,2.247-1.994l.271-1.59a1.247,1.247,0,0,1,.594-.864l1.377-.817a2.388,2.388,0,0,0,1.059-2.8l-.5-1.546a1.247,1.247,0,0,1,.125-1.037Zm-1.83.777a2.4,2.4,0,0,0-.241,1.992l.5,1.546a1.243,1.243,0,0,1-.551,1.456l-1.377.817a2.4,2.4,0,0,0-1.141,1.66L24.2,24.5a1.241,1.241,0,0,1-1.169,1.037l-1.577.078a2.4,2.4,0,0,0-1.792.945L18.7,27.826a1.256,1.256,0,0,1-1.523.376l-1.425-.666a2.394,2.394,0,0,0-2.031,0l-1.426.666a1.256,1.256,0,0,1-1.523-.376L9.81,26.561a2.4,2.4,0,0,0-1.791-.945l-1.577-.078A1.241,1.241,0,0,1,5.272,24.5L5,22.911a2.4,2.4,0,0,0-1.141-1.66l-1.377-.817a1.243,1.243,0,0,1-.551-1.456l.5-1.546a2.4,2.4,0,0,0-.241-1.992l-.85-1.381a1.243,1.243,0,0,1,.187-1.544l1.149-1.132a2.4,2.4,0,0,0,.71-1.88L3.27,7.887A1.242,1.242,0,0,1,4.155,6.6l1.521-.459A2.4,2.4,0,0,0,7.185,4.8l.637-1.469A1.258,1.258,0,0,1,8.971,2.58a1.227,1.227,0,0,1,.237.023l1.544.3a2.4,2.4,0,0,0,1.97-.488l1.229-.992a1.256,1.256,0,0,1,1.569,0l1.229.992a2.394,2.394,0,0,0,1.97.488l1.544-.3a1.256,1.256,0,0,1,1.386.729L22.284,4.8a2.4,2.4,0,0,0,1.509,1.343l1.521.459A1.242,1.242,0,0,1,26.2,7.887L26.085,9.5a2.4,2.4,0,0,0,.71,1.88l1.149,1.132a1.243,1.243,0,0,1,.187,1.544Z" transform="translate(0 -0.002)" fill="#2362aa" stroke="#55b9e8" stroke-width="0.4"/>
      </g>
    </g>
    <g id="Group_11207" data-name="Group 11207" transform="translate(6.835 6.824)">
      <g id="Group_11206" data-name="Group 11206">
        <path id="Path_16764" data-name="Path 16764" d="M7.951,7.119a.575.575,0,0,0-.814,0l-.008.008a.575.575,0,0,0,.81.818l.008-.008A.575.575,0,0,0,7.951,7.119Z" transform="translate(-6.958 -6.949)" fill="#2362aa" stroke="#55b9e8" stroke-width="0.4"/>
      </g>
    </g>
    <g id="Group_11209" data-name="Group 11209" transform="translate(8.873 3.794)">
      <g id="Group_11208" data-name="Group 11208">
        <path id="Path_16765" data-name="Path 16765" d="M25.643,12.794A10.938,10.938,0,0,0,9.314,5.4a.575.575,0,0,0,.588.989,9.787,9.787,0,0,1,14,12.232.575.575,0,1,0,1.06.448A10.926,10.926,0,0,0,25.643,12.794Z" transform="translate(-9.032 -3.864)" fill="#2362aa" stroke="#55b9e8" stroke-width="0.4"/>
      </g>
    </g>
    <g id="Group_11211" data-name="Group 11211" transform="translate(21.476 21.482)">
      <g id="Group_11210" data-name="Group 11210">
        <path id="Path_16766" data-name="Path 16766" d="M22.855,22.041a.576.576,0,0,0-.814,0l-.008.008a.575.575,0,0,0,.81.818l.008-.008A.575.575,0,0,0,22.855,22.041Z" transform="translate(-21.862 -21.87)" fill="#2362aa" stroke="#55b9e8" stroke-width="0.4"/>
      </g>
    </g>
    <g id="Group_11213" data-name="Group 11213" transform="translate(3.8 10.117)">
      <g id="Group_11212" data-name="Group 11212">
        <path id="Path_16767" data-name="Path 16767" d="M20.585,23.533a.576.576,0,0,0-.789-.2,9.787,9.787,0,0,1-14-12.232.575.575,0,1,0-1.06-.448,10.935,10.935,0,0,0,15.652,13.67A.576.576,0,0,0,20.585,23.533Z" transform="translate(-3.868 -10.301)" fill="#2362aa" stroke="#55b9e8" stroke-width="0.4"/>
      </g>
    </g>
    <g id="Group_11215" data-name="Group 11215" transform="translate(10.92 9.948)">
      <g id="Group_11214" data-name="Group 11214">
        <path id="Path_16768" data-name="Path 16768" d="M17.31,10.2a.575.575,0,0,0-.784.218l-5.335,9.45a.575.575,0,1,0,1,.566l5.335-9.45A.575.575,0,0,0,17.31,10.2Z" transform="translate(-11.116 -10.128)" fill="#2362aa" stroke="#55b9e8" stroke-width="0.4"/>
      </g>
    </g>
    <g id="Group_11217" data-name="Group 11217" transform="translate(15.785 16.14)">
      <g id="Group_11216" data-name="Group 11216">
        <path id="Path_16769" data-name="Path 16769" d="M18.486,16.432A2.417,2.417,0,1,0,20.9,18.848,2.42,2.42,0,0,0,18.486,16.432Zm0,3.683a1.266,1.266,0,1,1,1.266-1.266A1.267,1.267,0,0,1,18.486,20.114Z" transform="translate(-16.069 -16.432)" fill="#2362aa" stroke="#55b9e8" stroke-width="0.4"/>
      </g>
    </g>
    <g id="Group_11219" data-name="Group 11219" transform="translate(8.851 8.492)">
      <g id="Group_11218" data-name="Group 11218">
        <path id="Path_16770" data-name="Path 16770" d="M11.427,8.647a2.417,2.417,0,1,0,2.417,2.417A2.42,2.42,0,0,0,11.427,8.647Zm0,3.683a1.266,1.266,0,1,1,1.266-1.266A1.267,1.267,0,0,1,11.427,12.329Z" transform="translate(-9.01 -8.647)" fill="#2362aa" stroke="#55b9e8" stroke-width="0.4"/>
      </g>
    </g>
  </g>
</svg>
