<svg xmlns="http://www.w3.org/2000/svg" width="30.959" height="25.262" viewBox="0 0 30.959 25.262">
  <g id="service" transform="translate(-3.575 0.1)">
    <g id="Group_11228" data-name="Group 11228" transform="translate(1.933)">
      <g id="Group_11227" data-name="Group 11227">
        <path id="Path_16783" data-name="Path 16783" d="M32.279,22.679a7.528,7.528,0,0,0-1.908-11.954V.58a.58.58,0,0,0-.58-.58H4.255a.58.58,0,0,0-.58.58V20.313a.58.58,0,0,0,.58.58H20.2a7.5,7.5,0,0,0,8.679,3.787A7.6,7.6,0,0,0,32.279,22.679Zm-30.346.536ZM14.7,1.161h4.643v5.8H14.7Zm5.012,13.913a7.537,7.537,0,0,0,0,4.659H4.835V1.161h8.705V7.545a.58.58,0,0,0,.58.58h5.8a.58.58,0,0,0,.58-.58V1.161h8.705v9.075A7.537,7.537,0,0,0,19.713,15.073Zm7.176,8.722a6.384,6.384,0,1,1,6.384-6.384A6.392,6.392,0,0,1,26.889,23.795Z" transform="translate(-1.933)" fill="#2362aa" stroke="#55b9e8" stroke-width="0.2"/>
      </g>
    </g>
    <g id="Group_11230" data-name="Group 11230" transform="translate(22.241 12.187)">
      <g id="Group_11229" data-name="Group 11229">
        <path id="Path_16784" data-name="Path 16784" d="M28.109,13.455a.58.58,0,0,0-.484-.4l-2.534-.3-1.074-2.273a.58.58,0,0,0-.522-.333.543.543,0,0,0-.525.325l-1.119,2.28-2.493.3a.58.58,0,0,0-.336.991l1.836,1.79L20.034,18.7a.58.58,0,0,0,.874.647l2.586-1.681,2.586,1.683a.58.58,0,0,0,.866-.67L26,15.838l1.946-1.777A.58.58,0,0,0,28.109,13.455Zm-3.168,1.781a.58.58,0,0,0-.159.612l.539,1.617-1.509-.981a.58.58,0,0,0-.633,0l-1.6,1.038.489-1.7a.58.58,0,0,0-.152-.575L20.7,14.063l1.6-.194a.58.58,0,0,0,.451-.32l.727-1.48.7,1.472a.58.58,0,0,0,.456.329l1.594.189Z" transform="translate(-18.846 -10.149)" fill="#2362aa" stroke="#55b9e8" stroke-width="0.2"/>
      </g>
    </g>
    <g id="Group_11232" data-name="Group 11232" transform="translate(5.996 13.929)">
      <g id="Group_11231" data-name="Group 11231">
        <path id="Path_16785" data-name="Path 16785" d="M16.344,11.6H5.9a.58.58,0,0,0-.58.58v3.482a.58.58,0,0,0,.58.58H16.344a.58.58,0,0,0,.58-.58V12.18A.58.58,0,0,0,16.344,11.6Zm-.58,3.482H6.478V12.761h9.286Z" transform="translate(-5.317 -11.6)" fill="#2362aa" stroke="#55b9e8" stroke-width="0.2"/>
      </g>
    </g>
    <g id="Group_11234" data-name="Group 11234" transform="translate(5.996 2.902)">
      <g id="Group_11233" data-name="Group 11233">
        <path id="Path_16786" data-name="Path 16786" d="M10.95,4.908,8.629,2.587a.58.58,0,0,0-.821,0L5.487,4.908A.58.58,0,0,0,5.9,5.9h.58V7.06a.58.58,0,0,0,.58.58H9.379a.58.58,0,0,0,.58-.58V5.9h.58a.58.58,0,0,0,.41-.991ZM8.8,5.318V6.479H7.638V5.318a.58.58,0,0,0-.377-.544l.957-.957.957.957A.58.58,0,0,0,8.8,5.318Z" transform="translate(-5.317 -2.417)" fill="#2362aa" stroke="#55b9e8" stroke-width="0.2"/>
      </g>
    </g>
  </g>
</svg>
