<svg xmlns="http://www.w3.org/2000/svg" xmlns:xlink="http://www.w3.org/1999/xlink" width="34" height="28" viewBox="0 0 34 28">
  <defs>
    <clipPath id="clip-path">
      <rect id="Rectangle_1166" data-name="Rectangle 1166" width="34" height="28" transform="translate(0.051)" fill="#2362aa" stroke="#707070" stroke-width="1"/>
    </clipPath>
  </defs>
  <g id="Mask_Group_84" data-name="Mask Group 84" transform="translate(-0.051)" clip-path="url(#clip-path)">
    <path id="delivery-truck_3_" data-name="delivery-truck (3)" d="M27.616,55.88a3.119,3.119,0,0,0-2.2.908,3.056,3.056,0,0,0,0,4.375,3.131,3.131,0,0,0,2.2.908,3.1,3.1,0,0,0,0-6.19Zm0,4.815a1.72,1.72,0,1,1,0-3.439,1.72,1.72,0,0,1,0,3.439Zm.8-15.125a.668.668,0,0,0-.461-.179H24.425a.69.69,0,0,0-.688.688v5.64a.69.69,0,0,0,.688.688h5.6a.69.69,0,0,0,.688-.688V47.943a.688.688,0,0,0-.227-.509Zm.922,5.461H25.112V46.76h2.572l1.651,1.486ZM10.819,55.88a3.119,3.119,0,0,0-2.2.908,3.056,3.056,0,0,0,0,4.375,3.131,3.131,0,0,0,2.2.908,3.1,3.1,0,0,0,0-6.19Zm0,4.815a1.72,1.72,0,1,1,0-3.439,1.72,1.72,0,0,1,0,3.439ZM6.232,56.726H4.849V54.9a.688.688,0,0,0-1.376,0v2.517a.69.69,0,0,0,.688.688h2.07a.688.688,0,1,0,0-1.376Zm3.487-3.749a.69.69,0,0,0-.688-.688H.688a.688.688,0,1,0,0,1.376H9.031A.685.685,0,0,0,9.719,52.978ZM2.084,50.495l8.343.048a.694.694,0,0,0,.695-.681.681.681,0,0,0-.681-.695L2.1,49.119H2.091a.688.688,0,0,0-.007,1.376Zm1.4-3.123h8.343a.688.688,0,0,0,0-1.376H3.487a.688.688,0,1,0,0,1.376Zm30.037-.929h0L28.6,42.365a.678.678,0,0,0-.44-.158H22.368V39.73a.69.69,0,0,0-.688-.688H4.161a.69.69,0,0,0-.688.688v5.035a.688.688,0,0,0,1.376,0V40.418H21V56.726h-5.64a.688.688,0,1,0,0,1.376h8.4a.688.688,0,1,0,0-1.376H22.375V43.582h5.544L32.4,47.3l-.048,9.416H31.64a.688.688,0,1,0,0,1.376h1.4a.684.684,0,0,0,.688-.681l.055-10.427A.727.727,0,0,0,33.524,46.444Z" transform="translate(0.272 -36.936)" fill="#2362aa" stroke="#54b9e7" stroke-width="0.1"/>
  </g>
</svg>
